<?xml version="1.0" encoding="utf-8"?>
<!-- Generator: Adobe Illustrator 27.5.0, SVG Export Plug-In . SVG Version: 6.00 Build 0)  -->
<svg version="1.1" xmlns="http://www.w3.org/2000/svg" xmlns:xlink="http://www.w3.org/1999/xlink" x="0px" y="0px"
	 viewBox="0 0 500 500" style="enable-background:new 0 0 500 500;" xml:space="preserve">
<g id="BACKGROUND">
	<rect id="XMLID_1_" style="fill:#FFFFFF;" width="500" height="500"/>
</g>
<g id="OBJECTS">
	<g id="XMLID_2104_">
		
			<ellipse id="XMLID_2114_" transform="matrix(0.7071 -0.7071 0.7071 0.7071 -87.9804 259.0782)" style="fill:#CAD9FF;" cx="268.745" cy="235.741" rx="156.308" ry="156.308"/>
		<path id="XMLID_2117_" style="fill:#CAD9FF;" d="M113.937,136.081c0-0.829-0.671-1.5-1.5-1.5h-5.11v-5.11
			c0-0.829-0.671-1.5-1.5-1.5c-0.829,0-1.5,0.671-1.5,1.5v5.11h-5.11c-0.829,0-1.5,0.671-1.5,1.5c0,0.829,0.671,1.5,1.5,1.5h5.11
			v5.11c0,0.829,0.671,1.5,1.5,1.5c0.829,0,1.5-0.671,1.5-1.5v-5.11h5.11C113.265,137.581,113.937,136.91,113.937,136.081z"/>
		<g id="XMLID_2_">
			<path id="XMLID_2115_" style="fill:#CAD9FF;" d="M379.078,65.695h8.195v8.195c0,1.381,1.119,2.5,2.5,2.5
				c1.381,0,2.5-1.119,2.5-2.5v-8.195h8.195c1.381,0,2.5-1.119,2.5-2.5c0-1.381-1.119-2.5-2.5-2.5h-8.195V52.5
				c0-1.381-1.119-2.5-2.5-2.5c-1.381,0-2.5,1.119-2.5,2.5v8.195h-8.195c-1.381,0-2.5,1.119-2.5,2.5
				C376.578,64.576,377.697,65.695,379.078,65.695z"/>
			<path id="XMLID_2116_" style="fill:#CAD9FF;" d="M310.025,65.295h5.109v5.11c0,0.829,0.672,1.5,1.5,1.5s1.5-0.671,1.5-1.5v-5.11
				h5.11c0.828,0,1.5-0.671,1.5-1.5s-0.672-1.5-1.5-1.5h-5.11v-5.11c0-0.829-0.672-1.5-1.5-1.5s-1.5,0.671-1.5,1.5v5.11h-5.109
				c-0.828,0-1.5,0.671-1.5,1.5S309.197,65.295,310.025,65.295z"/>
			<path id="XMLID_2118_" style="fill:#CAD9FF;" d="M402.217,118.332c-0.828,0-1.5,0.671-1.5,1.5s0.672,1.5,1.5,1.5h2.585v2.585
				c0,0.829,0.672,1.5,1.5,1.5c0.828,0,1.5-0.671,1.5-1.5v-2.585h2.585c0.828,0,1.5-0.671,1.5-1.5s-0.672-1.5-1.5-1.5h-2.585v-2.586
				c0-0.829-0.672-1.5-1.5-1.5c-0.828,0-1.5,0.671-1.5,1.5v2.586H402.217z"/>
		</g>
		<g id="XMLID_4_">
			<path id="XMLID_33_" style="fill:#CAD9FF;" d="M119.258,400.802h-8.195v-8.195c0-1.381-1.119-2.5-2.5-2.5s-2.5,1.119-2.5,2.5
				v8.195h-8.195c-1.381,0-2.5,1.119-2.5,2.5c0,1.381,1.119,2.5,2.5,2.5h8.195v8.195c0,1.381,1.119,2.5,2.5,2.5s2.5-1.119,2.5-2.5
				v-8.195h8.195c1.381,0,2.5-1.119,2.5-2.5C121.758,401.921,120.639,400.802,119.258,400.802z"/>
			<path id="XMLID_32_" style="fill:#CAD9FF;" d="M188.311,401.203h-5.109v-5.11c0-0.829-0.672-1.5-1.5-1.5
				c-0.828,0-1.5,0.671-1.5,1.5v5.11h-5.11c-0.828,0-1.5,0.671-1.5,1.5c0,0.829,0.672,1.5,1.5,1.5h5.11v5.11
				c0,0.829,0.672,1.5,1.5,1.5c0.828,0,1.5-0.671,1.5-1.5v-5.11h5.109c0.828,0,1.5-0.671,1.5-1.5
				C189.811,401.874,189.139,401.203,188.311,401.203z"/>
			<path id="XMLID_34_" style="fill:#CAD9FF;" d="M405.311,371.195h-5.109v-5.11c0-0.829-0.672-1.5-1.5-1.5
				c-0.828,0-1.5,0.671-1.5,1.5v5.11h-5.11c-0.828,0-1.5,0.671-1.5,1.5s0.672,1.5,1.5,1.5h5.11v5.11c0,0.829,0.672,1.5,1.5,1.5
				c0.828,0,1.5-0.671,1.5-1.5v-5.11h5.109c0.828,0,1.5-0.671,1.5-1.5S406.139,371.195,405.311,371.195z"/>
			<path id="XMLID_31_" style="fill:#CAD9FF;" d="M96.119,348.165c0.828,0,1.5-0.671,1.5-1.5c0-0.829-0.672-1.5-1.5-1.5h-2.585
				v-2.585c0-0.829-0.672-1.5-1.5-1.5c-0.828,0-1.5,0.671-1.5,1.5v2.585H87.95c-0.828,0-1.5,0.671-1.5,1.5
				c0,0.829,0.672,1.5,1.5,1.5h2.585v2.585c0,0.829,0.672,1.5,1.5,1.5c0.828,0,1.5-0.671,1.5-1.5v-2.585H96.119z"/>
			<path id="XMLID_35_" style="fill:#CAD9FF;" d="M421.119,392.54c0.828,0,1.5-0.671,1.5-1.5c0-0.829-0.672-1.5-1.5-1.5h-2.585
				v-2.586c0-0.829-0.672-1.5-1.5-1.5c-0.828,0-1.5,0.671-1.5,1.5v2.586h-2.585c-0.828,0-1.5,0.671-1.5,1.5
				c0,0.829,0.672,1.5,1.5,1.5h2.585v2.585c0,0.829,0.672,1.5,1.5,1.5c0.828,0,1.5-0.671,1.5-1.5v-2.585H421.119z"/>
		</g>
		<path id="XMLID_2119_" style="fill:#CAD9FF;" d="M84.618,167.849h-2.586v-2.585c0-0.829-0.671-1.5-1.5-1.5
			c-0.829,0-1.5,0.671-1.5,1.5v2.585h-2.585c-0.829,0-1.5,0.671-1.5,1.5s0.671,1.5,1.5,1.5h2.585v2.585c0,0.829,0.671,1.5,1.5,1.5
			c0.829,0,1.5-0.671,1.5-1.5v-2.585h2.586c0.829,0,1.5-0.671,1.5-1.5S85.446,167.849,84.618,167.849z"/>
		<path id="XMLID_2120_" style="fill:#CAD9FF;" d="M101.717,113.099v-8.195h8.195c1.381,0,2.5-1.119,2.5-2.5
			c0-1.381-1.119-2.5-2.5-2.5h-8.195v-8.195c0-1.381-1.119-2.5-2.5-2.5c-1.381,0-2.5,1.119-2.5,2.5v8.195h-8.195
			c-1.381,0-2.5,1.119-2.5,2.5c0,1.381,1.119,2.5,2.5,2.5h8.195v8.195c0,1.381,1.119,2.5,2.5,2.5
			C100.598,115.599,101.717,114.48,101.717,113.099z"/>
	</g>
	<g id="XMLID_2053_">
		<g id="XMLID_2046_">
			<g id="XMLID_1977_">
				<g id="XMLID_1973_">
					<g id="XMLID_2037_">
						<path id="XMLID_1999_" style="fill:#FBA278;" d="M216.774,347.173c-16.258,0-32.599-3.868-47.031-11.247l7.91-15.471
							c14.944,7.64,32.354,10.752,49.013,8.757c7.734-0.925,13.015-2.918,16.146-6.09c3.369-3.413,5.062-9.301,4.53-15.751
							c-0.546-6.609-2.978-13.062-6.1-20.811l16.117-6.494c3.553,8.819,6.555,16.853,7.3,25.875
							c0.959,11.602-2.497,22.313-9.48,29.388c-6.004,6.082-14.656,9.726-26.45,11.135
							C224.769,346.94,220.773,347.173,216.774,347.173z"/>
					</g>
					<g id="XMLID_2036_">
						<path id="XMLID_1998_" style="fill:#FABB8F;" d="M253.593,399.366l-17.225-2.291c4.053-30.463-3.043-54.406-9.304-75.531
							c-5.818-19.631-10.843-36.584-4.055-52.349l15.96,6.87c-4.3,9.989-0.304,23.472,4.755,40.541
							C250.145,338.27,258.135,365.23,253.593,399.366z"/>
					</g>
					<g id="XMLID_2035_">
						<path id="XMLID_2229_" style="fill:#392A51;" d="M231.332,256.293c-8.768,6.671-18.706,28.644-19.678,57.175
							c-0.55,6.508,9.452,11.055,21.226,12.715c12.824,1.807,31.584,4.624,36.108-6.67c2.279-10.58-1.587-43.56-8.331-52.025"/>
					</g>
					<g id="XMLID_2009_">
						<g id="XMLID_2017_">
							<path id="XMLID_2058_" style="fill:#FF4E91;" d="M271.812,425.382c-1.779,10.409-41.711-1.195-42.156-5.128
								c-0.445-3.933,5.384-25.915,7.414-26.613c2.03-0.698,14.747,1.982,15.415,4.24c0.668,2.257-0.772,13.08-0.772,13.08
								S273.268,416.86,271.812,425.382z"/>
						</g>
						<g id="XMLID_2013_">
							<g id="XMLID_2016_">
								<path id="XMLID_2055_" style="fill:none;" d="M268.336,420.719c-0.501,1.583-1.943,2.733-3.513,3.272
									c-1.571,0.538-3.269,0.55-4.928,0.48c-10.544-0.445-14.657-2.485-24.631-5.934c-1.226-0.424-2.475-0.86-3.505-1.648
									c-0.644-0.493-1.196-1.153-1.505-1.895c0.266-1.398,0.602-2.955,0.988-4.581c0.428,0.685,0.966,1.302,1.608,1.793
									c0.974,0.746,2.195,1.234,3.415,1.116c1.112-0.108,2.132-0.709,2.929-1.492c4.02-3.948,2.012-13.156-4.847-10.839
									c-0.209,0.071-0.408,0.164-0.607,0.259c1.29-4.133,2.573-7.348,3.329-7.608c2.03-0.698,14.747,1.982,15.415,4.24
									c0.668,2.257-0.772,13.08-0.772,13.08s9.699,2.747,16.774,8.469C268.512,419.866,268.467,420.305,268.336,420.719z"/>
							</g>
							<g id="XMLID_2015_">
								<path id="XMLID_2051_" style="fill:#392A51;" d="M231.758,416.888c1.03,0.788,2.28,1.224,3.505,1.648
									c9.974,3.449,14.087,5.489,24.631,5.934c1.659,0.07,3.357,0.059,4.928-0.48c1.571-0.538,3.012-1.689,3.513-3.272
									c0.131-0.413,0.176-0.853,0.15-1.289c2.292,1.854,3.682,3.868,3.325,5.953c-1.779,10.409-41.711-1.195-42.156-5.128
									c-0.104-0.924,0.14-2.853,0.598-5.262C230.563,415.735,231.114,416.395,231.758,416.888z"/>
							</g>
							<g id="XMLID_2014_">
								<path id="XMLID_2047_" style="fill:#392A51;" d="M239.193,411.828c-0.797,0.783-1.817,1.384-2.929,1.492
									c-1.221,0.118-2.442-0.37-3.415-1.116c-0.641-0.491-1.18-1.107-1.608-1.793c0.724-3.05,1.612-6.322,2.499-9.163
									c0.198-0.094,0.397-0.188,0.607-0.259C241.206,398.672,243.214,407.88,239.193,411.828z"/>
							</g>
						</g>
						<g id="XMLID_2012_">
							<path id="XMLID_2043_" style="fill:#392A51;" d="M256.059,412.393c0.7-0.176,1.539-0.312,1.854-0.961
								c0.203-0.418,0.098-0.94-0.176-1.316c-0.275-0.375-0.694-0.621-1.128-0.788c-1.41-0.54-3.059-0.304-4.346,0.487
								c-1.094,0.672-4.603,4.862-2.159,5.583C251.921,415.936,254.345,412.823,256.059,412.393z"/>
						</g>
						<g id="XMLID_2011_">
							<path id="XMLID_2039_" style="fill:#392A51;" d="M254.365,408.173c0.7-0.176,1.539-0.312,1.854-0.961
								c0.203-0.418,0.099-0.94-0.176-1.315c-0.275-0.375-0.694-0.621-1.128-0.788c-1.41-0.54-3.059-0.304-4.346,0.487
								c-1.094,0.672-4.604,4.862-2.159,5.583C250.227,411.716,252.652,408.603,254.365,408.173z"/>
						</g>
						<g id="XMLID_2010_">
							<path id="XMLID_2027_" style="fill:#392A51;" d="M254.136,403.726c0.719,0.056,1.558,0.193,2.063-0.322
								c0.326-0.332,0.392-0.86,0.251-1.303c-0.141-0.443-0.461-0.809-0.819-1.105c-1.165-0.961-2.804-1.26-4.275-0.919
								c-1.251,0.29-5.91,3.147-3.821,4.608C249.086,405.77,252.374,403.589,254.136,403.726z"/>
						</g>
					</g>
					<g id="XMLID_2000_">
						<g id="XMLID_2008_">
							<path id="XMLID_2211_" style="fill:#FF4E91;" d="M156.197,358.392c-10.272-2.448,3.889-41.546,7.842-41.737
								c3.953-0.19,25.513,7.048,26.078,9.118c0.566,2.07-2.931,14.588-5.227,15.108c-2.296,0.521-13.003-1.615-13.003-1.615
								S164.607,360.397,156.197,358.392z"/>
						</g>
						<g id="XMLID_2004_">
							<g id="XMLID_2007_">
								<path id="XMLID_2209_" style="fill:none;" d="M161.075,355.226c-1.547-0.602-2.602-2.115-3.038-3.717
									c-0.436-1.602-0.337-3.298-0.16-4.949c1.125-10.493,3.427-14.466,7.514-24.196c0.502-1.196,1.018-2.415,1.871-3.392
									c0.534-0.611,1.228-1.119,1.988-1.379c1.378,0.356,2.91,0.792,4.508,1.282c-0.712,0.382-1.362,0.88-1.893,1.489
									c-0.807,0.923-1.374,2.11-1.334,3.336c0.036,1.116,0.569,2.173,1.299,3.019c3.68,4.267,12.999,2.858,11.129-4.136
									c-0.057-0.213-0.138-0.418-0.219-0.622c4.041,1.554,7.166,3.042,7.377,3.814c0.566,2.07-2.931,14.588-5.227,15.108
									c-2.296,0.521-13.003-1.615-13.003-1.615s-3.368,9.5-9.535,16.191C161.915,355.456,161.479,355.383,161.075,355.226z"/>
							</g>
							<g id="XMLID_2006_">
								<path id="XMLID_2207_" style="fill:#392A51;" d="M167.262,318.972c-0.853,0.977-1.369,2.196-1.871,3.392
									c-4.087,9.73-6.389,13.703-7.514,24.196c-0.177,1.651-0.275,3.346,0.16,4.949c0.436,1.602,1.49,3.115,3.038,3.717
									c0.404,0.157,0.84,0.231,1.277,0.233c-1.998,2.168-4.098,3.424-6.155,2.934c-10.272-2.448,3.889-41.546,7.842-41.737
									c0.929-0.045,2.838,0.324,5.212,0.937C168.49,317.853,167.796,318.361,167.262,318.972z"/>
							</g>
							<g id="XMLID_2005_">
								<path id="XMLID_2205_" style="fill:#392A51;" d="M171.83,326.719c-0.73-0.846-1.263-1.902-1.299-3.019
									c-0.039-1.226,0.527-2.413,1.334-3.336c0.531-0.608,1.181-1.106,1.893-1.489c2.997,0.919,6.205,2.018,8.982,3.086
									c0.081,0.204,0.162,0.409,0.219,0.622C184.829,329.577,175.51,330.986,171.83,326.719z"/>
							</g>
						</g>
						<g id="XMLID_2003_">
							<path id="XMLID_2202_" style="fill:#392A51;" d="M170.176,343.512c0.13,0.71,0.212,1.555,0.839,1.912
								c0.404,0.23,0.932,0.159,1.324-0.091c0.392-0.25,0.665-0.652,0.859-1.075c0.63-1.372,0.501-3.033-0.205-4.368
								c-0.6-1.135-4.555-4.908-5.432-2.515C166.909,339.154,169.858,341.775,170.176,343.512z"/>
						</g>
						<g id="XMLID_2002_">
							<path id="XMLID_2200_" style="fill:#392A51;" d="M174.497,342.095c0.13,0.71,0.212,1.556,0.839,1.912
								c0.404,0.23,0.932,0.159,1.324-0.091c0.392-0.25,0.665-0.652,0.859-1.075c0.63-1.372,0.501-3.033-0.205-4.368
								c-0.6-1.135-4.554-4.908-5.432-2.515C171.229,337.737,174.179,340.357,174.497,342.095z"/>
						</g>
						<g id="XMLID_2001_">
							<path id="XMLID_2198_" style="fill:#392A51;" d="M178.949,342.153c-0.102,0.714-0.294,1.542,0.188,2.08
								c0.31,0.346,0.833,0.447,1.285,0.335c0.451-0.112,0.837-0.407,1.156-0.746c1.034-1.101,1.439-2.717,1.194-4.207
								c-0.209-1.267-2.759-6.101-4.351-4.111C177.236,336.983,179.2,340.404,178.949,342.153z"/>
						</g>
					</g>
				</g>
				<g id="XMLID_1976_">
					<path id="XMLID_1995_" style="fill:#FABB8F;" d="M319.408,208.05c-13.184,0-26.385-1.943-38.961-5.783l2.899-9.496
						c17.499,5.343,36.315,6.718,54.405,3.976l1.488,9.817C332.69,207.556,326.052,208.05,319.408,208.05z"/>
				</g>
				<g id="XMLID_1945_">
					<path id="XMLID_2192_" style="fill:#AA445A;" d="M268.564,125.649c8.898,16.132,7.189,35.95-3.862,56.859
						c15.149-13.661,23.198-37.402,19.57-53.443c-7.719-34.128-32.001-56.596-43.156-65.159c-2.432-1.867,6.283,20.339,4.195,25.578
						c-1.327,3.328,6.555,10.795,8.297,13.066C259.19,109.826,264.138,117.623,268.564,125.649z"/>
				</g>
				<g id="XMLID_1943_">
					<path id="XMLID_2190_" style="fill:#AA445A;" d="M145.186,112.173c0.295,15.767,6.728,30.754,8.939,46.368
						c2.212,15.614-1.397,34.13-15.199,41.759c29.361,8.308,61.262,7.384,90.093-2.609c11.44-3.965,22.816-9.653,30.161-19.278
						c6.721-8.807,9.416-20.162,9.558-31.24c0.142-11.078-2.082-22.035-4.33-32.883c-2.098-10.123-4.251-20.324-8.385-29.799
						c-4.135-9.476-10.445-18.292-19.263-23.692c-17.953-10.994-44.55-10.812-63.018-0.947
						C155.671,69.503,144.812,92.185,145.186,112.173z"/>
				</g>
				<g id="XMLID_2018_">
					<g id="XMLID_2019_">
						<g id="XMLID_2020_">
							<g id="XMLID_2033_">
								<g id="XMLID_2034_">
									<path id="XMLID_2188_" style="fill:#FF4E91;" d="M262.617,270.771c-0.501-19.698,4.883-59.238,4.381-78.936
										c-7.863-8.941-13.452-13.919-25.344-14.515c-11.892-0.596-23.955,3.802-32.673,11.911
										c-1.205,21.709,17.027,52.921,15.821,74.631C229.361,272.734,261.645,276.824,262.617,270.771z"/>
								</g>
							</g>
							<g id="XMLID_2031_">
								<g id="XMLID_2032_">
									<path id="XMLID_2185_" style="fill:#FABB8F;" d="M226.158,185.514c0,3.529,27.764,9.614,27.764,9.614s0-6.085,0-9.614
										s-6.215-6.39-13.882-6.39C232.373,179.124,226.158,181.984,226.158,185.514z"/>
								</g>
							</g>
							<g id="XMLID_2029_">
								<g id="XMLID_2030_">
									<path id="XMLID_2182_" style="fill:#FABB8F;" d="M239.62,189.133c-0.041-0.001-0.082-0.002-0.124-0.003
										c-3.35-0.069-6.087-2.672-6.148-6.022l-0.467-25.765c3.168,0.109,6.337,0.217,9.505,0.326
										c5.39,0.185,3.261,9.196,3.284,13.026l0.075,12.264C245.765,186.358,243.018,189.213,239.62,189.133z"/>
								</g>
							</g>
							<g id="XMLID_2025_">
								<g id="XMLID_2026_">
									<path id="XMLID_2179_" style="fill:#FF4E91;" d="M253.922,180.364c0,0,37.97,13.583,40.154,13.931
										c0,0-0.206,7.705-2.698,11.714l-22.417-3.159c-12.27-1.206-8.174-6.671-11.776-18.462L253.922,180.364z"/>
								</g>
							</g>
						</g>
					</g>
				</g>
				<g id="XMLID_1974_">
					<g id="XMLID_1975_">
						<g id="XMLID_1996_">
							<g id="XMLID_1997_">
								<path id="XMLID_2173_" style="fill:#FABB8F;" d="M181.486,145.964c-2.663-1.81-6.64-1.147-8.72,1.311
									c-2.08,2.458-2.145,6.334-0.31,8.98c1.835,2.646,5.337,3.946,8.5,3.345c3.163-0.601,5.877-2.979,7.095-5.96"/>
							</g>
						</g>
						<g id="XMLID_1990_">
							<g id="XMLID_1991_">
								<path id="XMLID_2170_" style="fill:#FBA278;" d="M263.497,100.556c6.26,10.909,9.67,24.011,6.605,36.209
									c-3.276,13.037-13.466,23.356-24.862,30.485c-9.593,6.001-20.973,10.288-32.116,8.326
									c-17.669-3.111-28.833-20.197-37.842-35.711c-5.053-8.701-10.267-18.006-9.932-28.063
									c0.35-10.524,6.799-19.923,14.344-27.268c7.487-7.29,16.457-13.302,26.54-16.044
									C232.538,61.336,251.264,79.238,263.497,100.556z"/>
							</g>
						</g>
						<g id="XMLID_1988_">
							<g id="XMLID_1989_">
								<path id="XMLID_2167_" style="fill:#FABB8F;" d="M219.819,90.432c2.766-5.284,5.128-10.743,6.796-16.511
									c0.18-0.622,14.587,8.465,15.78,9.429c4.99,4.032,9.397,8.79,13.021,14.085c7.294,10.66,13.843,24.428,10.834,37.603
									c-2.371,10.384-9.051,19.522-17.61,25.861c-9.693,7.178-22.216,10.955-34.07,8.725
									c-11.305-2.127-25.922-11.198-24.791-24.147c0.441-5.051,2.614-9.78,5.014-14.246
									C202.326,117.208,212.487,104.438,219.819,90.432z"/>
							</g>
						</g>
						<g id="XMLID_1980_">
							<g id="XMLID_1983_">
								<g id="XMLID_1984_">
									<path id="XMLID_2164_" style="fill:#392A51;" d="M246.703,112.564c-0.48,0.581-0.726,1.33-0.801,2.08
										c-0.165,1.658,0.531,3.409,1.876,4.391c1.345,0.982,3.312,1.087,4.683,0.142
										C257.434,115.749,250.07,108.489,246.703,112.564z"/>
								</g>
							</g>
							<g id="XMLID_1981_">
								<g id="XMLID_1982_">
									<path id="XMLID_2161_" style="fill:#392A51;" d="M200.411,133.826c-0.48,0.581-0.726,1.33-0.801,2.08
										c-0.165,1.657,0.531,3.408,1.876,4.391c1.345,0.982,3.312,1.087,4.683,0.142
										C211.142,137.011,203.777,129.75,200.411,133.826z"/>
								</g>
							</g>
						</g>
					</g>
				</g>
				<g id="XMLID_1951_">
					<g id="XMLID_1960_">
						<g id="XMLID_1961_">
							<path id="XMLID_2155_" style="fill:#FABB8F;" d="M175.549,229.384c-0.726-0.376-1.381-0.809-1.968-1.305
								c-1.739-1.466-2.794-3.474-2.971-5.655c-0.305-3.773,1.423-9.307,17.624-18.689l5.639,9.737
								c-4.565,2.643-7.762,4.943-9.744,6.63c5.316,0.431,14.434-0.386,17.966-0.701c1.937-0.174,3.59-0.32,4.777-0.383
								l0.604,11.235c-1.089,0.058-2.603,0.196-4.378,0.355C189.192,231.85,180.616,232.007,175.549,229.384z"/>
						</g>
					</g>
					<g id="XMLID_1958_">
						<g id="XMLID_1959_">
							<path id="XMLID_2152_" style="fill:#FF4E91;" d="M214.251,185.301c0,0-25.507,18.138-27.488,19.121
								c0,0,3.73,8.894,7.305,11.978l19.218-11.306C224.638,200.282,214.332,197.63,214.251,185.301L214.251,185.301z"/>
						</g>
					</g>
					<g id="XMLID_1954_">
						<g id="XMLID_1955_">
							<path id="XMLID_2149_" style="fill:#FABB8F;" d="M210.844,228.454c-1.835,3.544-6.195,4.93-9.739,3.095
								c-3.544-1.835-4.93-6.195-3.095-9.739c1.835-3.544,6.195-4.93,9.739-3.095C211.293,220.549,212.679,224.91,210.844,228.454z"
								/>
						</g>
					</g>
					<g id="XMLID_1952_">
						<g id="XMLID_1953_">
							<path id="XMLID_2146_" style="fill:#FABB8F;" d="M207.523,216.621c-0.352-0.524-0.986-0.811-1.615-0.864
								c-0.63-0.053-1.258,0.104-1.854,0.315c-2.255,0.799-4.207,2.426-5.399,4.5c-0.131,0.229-0.258,0.485-0.211,0.744
								C198.708,222.788,210.419,220.932,207.523,216.621z"/>
						</g>
					</g>
				</g>
				<g id="XMLID_1942_">
					<path id="XMLID_505_" style="fill:#533D6B;" d="M357.379,430H255.994c-5.249,0-9.504-4.255-9.504-9.504V210.354
						c0-5.249,4.255-9.504,9.504-9.504h101.384c5.249,0,9.504,4.255,9.504,9.504v210.141C366.883,425.745,362.628,430,357.379,430z"
						/>
					<path id="XMLID_1281_" style="fill:#F4F3FB;" d="M255.994,413.864c-3.187,0-5.78-2.593-5.78-5.78v-197.73
						c0-3.187,2.593-5.78,5.78-5.78h101.384c3.188,0,5.78,2.593,5.78,5.78v197.73c0,3.188-2.593,5.78-5.78,5.78H255.994z"/>
					
						<text id="XMLID_1283_" transform="matrix(1 0 0 1 262.4187 250.9072)" style="fill:#533D6B; font-family:'Selima'; font-size:26.3388px;">Contact Us</text>
					<g id="XMLID_1970_">
						<g id="XMLID_1993_">
							<g id="XMLID_2092_">
								<rect id="XMLID_2097_" x="291.117" y="383.496" style="fill:none;" width="46.079" height="10.022"/>
								<text id="XMLID_2096_" transform="matrix(1 0 0 1 291.1174 385.1333)"><tspan x="0" y="0" style="fill:#533D6B; font-family:'Poppins-Medium'; font-size:2.2128px;">Lorem</tspan><tspan x="7.227" y="0" style="fill:#533D6B; font-family:'Poppins-Medium'; font-size:2.2128px;"> </tspan><tspan x="7.75" y="0" style="fill:#533D6B; font-family:'Poppins-Medium'; font-size:2.2128px;">ipsum</tspan><tspan x="14.466" y="0" style="fill:#533D6B; font-family:'Poppins-Medium'; font-size:2.2128px;"> </tspan><tspan x="14.988" y="0" style="fill:#533D6B; font-family:'Poppins-Medium'; font-size:2.2128px;">dolor</tspan><tspan x="22.407" y="0" style="fill:#533D6B; font-family:'Poppins-Medium'; font-size:2.2128px;"> </tspan><tspan x="22.931" y="0" style="fill:#533D6B; font-family:'Poppins-Medium'; font-size:2.2128px;">sit</tspan><tspan x="26.1" y="0" style="fill:#533D6B; font-family:'Poppins-Medium'; font-size:2.2128px;"> </tspan><tspan x="26.622" y="0" style="fill:#533D6B; font-family:'Poppins-Medium'; font-size:2.2128px;">amet,</tspan><tspan x="33.021" y="0" style="fill:#533D6B; font-family:'Poppins-Medium'; font-size:2.2128px;"> </tspan><tspan x="33.545" y="0" style="fill:#533D6B; font-family:'Poppins-Medium'; font-size:2.2128px;">adipiscing </tspan><tspan x="0" y="2.655" style="fill:#533D6B; font-family:'Poppins-Medium'; font-size:2.2128px;">elit.</tspan><tspan x="4.507" y="2.655" style="fill:#533D6B; font-family:'Poppins-Medium'; font-size:2.2128px;"> </tspan><tspan x="5.335" y="2.655" style="fill:#533D6B; font-family:'Poppins-Medium'; font-size:2.2128px;">Etiam</tspan><tspan x="11.82" y="2.655" style="fill:#533D6B; font-family:'Poppins-Medium'; font-size:2.2128px;"> </tspan><tspan x="12.649" y="2.655" style="fill:#533D6B; font-family:'Poppins-Medium'; font-size:2.2128px;">neque.</tspan><tspan x="20.364" y="2.655" style="fill:#533D6B; font-family:'Poppins-Medium'; font-size:2.2128px;"> </tspan><tspan x="21.192" y="2.655" style="fill:#533D6B; font-family:'Poppins-Medium'; font-size:2.2128px;">In</tspan><tspan x="23.372" y="2.655" style="fill:#533D6B; font-family:'Poppins-Medium'; font-size:2.2128px;"> </tspan><tspan x="24.201" y="2.655" style="fill:#533D6B; font-family:'Poppins-Medium'; font-size:2.2128px;">laoreet,</tspan><tspan x="33.923" y="2.655" style="fill:#533D6B; font-family:'Poppins-Medium'; font-size:2.2128px;"> </tspan><tspan x="34.751" y="2.655" style="fill:#533D6B; font-family:'Poppins-Medium'; font-size:2.2128px;">magna</tspan><tspan x="43.094" y="2.655" style="fill:#533D6B; font-family:'Poppins-Medium'; font-size:2.2128px;"> </tspan><tspan x="43.923" y="2.655" style="fill:#533D6B; font-family:'Poppins-Medium'; font-size:2.2128px;">id </tspan><tspan x="0" y="5.311" style="fill:#533D6B; font-family:'Poppins-Medium'; font-size:2.2128px;">viverra</tspan><tspan x="9.154" y="5.311" style="fill:#533D6B; font-family:'Poppins-Medium'; font-size:2.2128px;"> </tspan><tspan x="10.172" y="5.311" style="fill:#533D6B; font-family:'Poppins-Medium'; font-size:2.2128px;">tinci</tspan><tspan x="15.895" y="5.311" style="fill:#533D6B; font-family:'Poppins-Medium'; font-size:2.2128px;"> </tspan><tspan x="16.912" y="5.311" style="fill:#533D6B; font-family:'Poppins-Medium'; font-size:2.2128px;">unt,</tspan><tspan x="21.78" y="5.311" style="fill:#533D6B; font-family:'Poppins-Medium'; font-size:2.2128px;"> </tspan><tspan x="22.798" y="5.311" style="fill:#533D6B; font-family:'Poppins-Medium'; font-size:2.2128px;">sem</tspan><tspan x="27.246" y="5.311" style="fill:#533D6B; font-family:'Poppins-Medium'; font-size:2.2128px;"> </tspan><tspan x="28.265" y="5.311" style="fill:#533D6B; font-family:'Poppins-Medium'; font-size:2.2128px;">odio</tspan><tspan x="33.887" y="5.311" style="fill:#533D6B; font-family:'Poppins-Medium'; font-size:2.2128px;"> </tspan><tspan x="34.904" y="5.311" style="fill:#533D6B; font-family:'Poppins-Medium'; font-size:2.2128px;">bibendum </tspan><tspan x="0" y="7.966" style="fill:#533D6B; font-family:'Poppins-Medium'; font-size:2.2128px;">justo</tspan></text>
							</g>
							<g id="XMLID_2024_">
								<g id="XMLID_2079_">
									<g id="XMLID_2089_">
										<polygon id="XMLID_2090_" style="fill:#533D6B;" points="281.43,387.548 281.427,387.865 282.687,388.665 
											283.958,387.884 283.96,387.567 282.689,388.349 										"/>
									</g>
									<g id="XMLID_2081_">
										<path id="XMLID_2083_" style="fill:#533D6B;" d="M282.688,385.974c-1.399,0-2.533,1.134-2.533,2.533
											c0,1.399,1.134,2.533,2.533,2.533c1.399,0,2.533-1.134,2.533-2.533C285.221,387.108,284.087,385.974,282.688,385.974z
											 M284.262,389.468c-0.001,0.174-0.145,0.315-0.319,0.314l-2.531-0.019c-0.174-0.001-0.315-0.145-0.314-0.319l0.016-1.898
											c0.001-0.174,0.143-0.315,0.317-0.314l2.531,0.019c0.174,0.001,0.315,0.145,0.314,0.319L284.262,389.468z"/>
									</g>
								</g>
								<g id="XMLID_2060_">
									<g id="XMLID_2071_">
										<path id="XMLID_2073_" style="fill:#533D6B;" d="M270.102,387.712c-0.2-0.001-0.362,0.159-0.364,0.359
											c-0.001,0.199,0.159,0.363,0.359,0.364c0.199,0.001,0.363-0.159,0.364-0.359
											C270.462,387.876,270.301,387.713,270.102,387.712z"/>
									</g>
									<g id="XMLID_2062_">
										<path id="XMLID_2065_" style="fill:#533D6B;" d="M270.099,385.974c-1.399,0-2.533,1.134-2.533,2.533
											c0,1.399,1.134,2.533,2.533,2.533c1.399,0,2.533-1.134,2.533-2.533C272.632,387.108,271.498,385.974,270.099,385.974z
											 M270.085,389.952c0,0-1.004-1.128-0.998-1.887c0.004-0.56,0.46-1.009,1.02-1.005c0.559,0.004,1.009,0.46,1.004,1.02
											C271.106,388.84,270.085,389.952,270.085,389.952z"/>
									</g>
								</g>
								<g id="XMLID_2038_">
									<g id="XMLID_2054_">
										<path id="XMLID_2056_" style="fill:#533D6B;" d="M275.956,389.082l0.001-0.144l-0.687-0.698
											c-0.02,0.084-0.032,0.169-0.032,0.259c-0.004,0.59,0.433,1.079,1.003,1.154l0.002-0.279
											C276.084,389.372,275.954,389.241,275.956,389.082z"/>
									</g>
									<g id="XMLID_2050_">
										<path id="XMLID_2052_" style="fill:#533D6B;" d="M276.835,387.439l0,0.059c-0.001,0.159-0.132,0.288-0.291,0.287
											l-0.289-0.002l-0.002,0.289c0,0.079-0.066,0.144-0.145,0.143l-0.289-0.002l-0.002,0.289l0.867,0.007
											c0.08,0.001,0.144,0.066,0.143,0.146l-0.003,0.434l0.145,0.001c0.13,0.001,0.236,0.086,0.273,0.203
											c0.189-0.204,0.307-0.476,0.309-0.777C277.554,388.031,277.258,387.614,276.835,387.439z"/>
									</g>
									<g id="XMLID_2040_">
										<path id="XMLID_2042_" style="fill:#533D6B;" d="M276.394,385.974c-1.399,0-2.533,1.134-2.533,2.533
											c0,1.399,1.134,2.533,2.533,2.533c1.399,0,2.533-1.134,2.533-2.533C278.926,387.108,277.792,385.974,276.394,385.974z
											 M276.383,389.952c-0.798-0.006-1.441-0.658-1.435-1.456c0.006-0.798,0.659-1.441,1.456-1.435
											c0.798,0.006,1.441,0.658,1.435,1.456C277.833,389.316,277.181,389.958,276.383,389.952z"/>
									</g>
								</g>
							</g>
							<g id="XMLID_1994_">
								<rect id="XMLID_2021_" x="287.522" y="383.081" style="fill:#533D6B;" width="0.738" height="10.852"/>
							</g>
						</g>
						<g id="XMLID_1987_">
							
								<text id="XMLID_1992_" transform="matrix(1 0 0 1 267.7092 400.4917)" style="fill:#533D6B; font-family:'Poppins-Medium'; font-size:4.8791px;">www.websitedotcom.com</text>
						</g>
					</g>
					<path id="XMLID_1247_" style="fill:#533D6B;" d="M334.841,213.715h-56.309c-1.759,0-3.185-1.426-3.185-3.185v-7.675h62.678
						v7.675C338.026,212.289,336.6,213.715,334.841,213.715z"/>
					<g id="XMLID_1941_">
						<path id="XMLID_1282_" style="fill:#FFFFFF;stroke:#533D6B;stroke-miterlimit:10;" d="M348.472,286.147h-83.571
							c-1.371,0-2.482-1.111-2.482-2.482v-10.343c0-1.371,1.111-2.482,2.482-2.482h83.571c1.371,0,2.482,1.111,2.482,2.482v10.343
							C350.954,285.035,349.843,286.147,348.472,286.147z"/>
						<path id="XMLID_1294_" style="fill:#FFFFFF;stroke:#533D6B;stroke-miterlimit:10;" d="M348.472,348.204h-83.571
							c-1.371,0-2.482-1.111-2.482-2.482v-47.578c0-1.371,1.111-2.482,2.482-2.482h83.571c1.371,0,2.482,1.111,2.482,2.482v47.578
							C350.954,347.093,349.843,348.204,348.472,348.204z"/>
						<path id="XMLID_1940_" style="fill:#BFB3D9;" d="M318.318,364.585h-25.455c-0.904,0-1.637-0.733-1.637-1.637v-3.837
							c0-0.904,0.733-1.637,1.637-1.637h25.455c0.904,0,1.637,0.733,1.637,1.637v3.837
							C319.955,363.852,319.222,364.585,318.318,364.585z"/>
					</g>
				</g>
				<g id="XMLID_1944_">
					<path id="XMLID_2098_" style="fill:#AA445A;" d="M220.053,74.412c-3.698,14.435-12.621,26.852-20.286,39.63
						c-7.665,12.778-14.393,27.149-12.916,41.976c-18.196-12.786-27.676-36.859-23.083-58.618
						c2.79-13.217,10.683-25.117,21.299-33.378c6.136-4.774,19.777-9.778,27.893-4.704
						C219.854,63.628,221.789,67.638,220.053,74.412z"/>
				</g>
				<g id="XMLID_1946_">
					<path id="XMLID_1985_" style="fill:#392A51;" d="M237.254,129.729c-0.172,0-0.344-0.072-0.467-0.211
						c-0.226-0.258-0.201-0.65,0.057-0.876c0.767-0.673,1.14-1.777,0.999-2.954c-0.141-1.177-0.764-2.162-1.667-2.635
						c-0.903-0.472-2.068-0.425-3.115,0.13c-1.048,0.555-1.743,1.491-1.86,2.504c-0.048,0.416-0.194,1.682-1.255,1.727
						c-0.717,0.028-1.109-0.58-1.264-0.81l-4.893-7.215c-0.192-0.284-0.118-0.67,0.165-0.862c0.284-0.192,0.67-0.119,0.862,0.165
						l4.893,7.215c0.065,0.095,0.114,0.158,0.15,0.199c0.033-0.094,0.074-0.262,0.109-0.562c0.163-1.419,1.102-2.712,2.512-3.458
						c1.409-0.745,3.005-0.796,4.271-0.132c1.266,0.663,2.134,2.004,2.324,3.587c0.189,1.584-0.339,3.091-1.413,4.034
						C237.545,129.678,237.399,129.729,237.254,129.729z"/>
				</g>
				<g id="XMLID_1947_">
					<path id="XMLID_2091_" style="fill:#AA445A;" d="M196.777,124.71c-0.03,1.088,0.283,2.433,1.338,2.698
						c0.999,0.251,1.882-0.66,2.485-1.495c2.537-3.512,4.577-7.383,6.038-11.462c0.256-0.715,0.48-1.563,0.048-2.188
						c-1.598-2.312-4.868,2.187-5.82,3.295C198.586,118.212,196.875,121.114,196.777,124.71z"/>
				</g>
				<g id="XMLID_1949_">
					<path id="XMLID_2086_" style="fill:#AA445A;" d="M252.399,98.389c0.923,0.576,1.872,1.579,1.511,2.605
						c-0.342,0.971-1.59,1.205-2.619,1.247c-4.329,0.177-8.683-0.26-12.89-1.293c-0.737-0.181-1.568-0.463-1.851-1.168
						c-1.046-2.608,4.511-2.852,5.96-3.034C245.982,96.311,249.346,96.486,252.399,98.389z"/>
				</g>
				<g id="XMLID_1972_">
					<path id="XMLID_2082_" style="fill:#AA445A;" d="M146.13,113.662c-0.003,6.439,1.88,12.706,3.387,18.966
						c1.507,6.261,2.648,12.834,1.163,19.1c-1.485,6.266-6.196,12.161-12.549,13.21c4.98,2.69,11.569,0.213,14.976-4.306
						c3.407-4.52,4.233-10.484,4.133-16.143"/>
				</g>
				<g id="XMLID_1948_">
					<path id="XMLID_1979_" style="fill:#392A51;" d="M230.228,152.611c-2.357,0-4.729-1.108-6.181-2.965
						c-0.211-0.27-0.163-0.66,0.107-0.871c0.272-0.212,0.661-0.162,0.871,0.107c1.436,1.838,3.948,2.802,6.246,2.399
						c2.299-0.403,4.33-2.165,5.055-4.383c0.106-0.325,0.458-0.505,0.782-0.397c0.326,0.106,0.504,0.457,0.397,0.782
						c-0.864,2.642-3.283,4.74-6.02,5.22C231.071,152.576,230.649,152.611,230.228,152.611z"/>
				</g>
				<g id="XMLID_1978_">
					<path id="XMLID_2076_" style="fill:#FABB8F;" d="M335.143,197.462c-0.169,0.011-0.339,0.051-0.499,0.114
						c-2.224,0.883-4.113,2.582-5.226,4.7c-0.294,0.559-0.539,1.159-0.577,1.79c-0.038,0.63,0.155,1.298,0.624,1.722
						c0.708,0.64,1.404,0.777,2.061,0.576c1.33,3.735,5.423,5.706,9.175,4.403c3.77-1.309,5.765-5.427,4.456-9.197
						c-1.309-3.77-5.427-5.765-9.197-4.456C335.677,197.213,335.407,197.332,335.143,197.462z"/>
				</g>
			</g>
			<g id="XMLID_2044_">
				<path id="XMLID_1971_" style="fill:#392A51;" d="M166.377,137.747c2.482-0.863,5.234-0.148,7.651,0.884
					c6.063,2.587,11.24,7.202,14.504,12.928c2.235,3.922,3.499,9.053,0.993,12.807c-5.311,7.955-18.502,2.101-23.126-3.828
					C162.271,155.246,157.479,140.839,166.377,137.747z"/>
				<path id="XMLID_2022_" style="fill:#533D6B;" d="M171.872,147.606c3.417,1.882,5.497,5.527,6.786,9.208
					c0.854,2.438,1.333,5.441-0.396,7.36c-1.448,1.608-3.927,1.794-6.047,1.36c-5.538-1.134-10.245-6.252-11.008-11.872
					C160.369,147.489,166.724,144.77,171.872,147.606z"/>
				<path id="XMLID_2023_" style="fill:#392A51;" d="M166.585,140.554c-7.599-15.989-7.293-35.512,0.804-51.255
					c8.097-15.743,23.799-27.347,41.225-30.466c-15.084,10.85-25.41,21.607-31.748,37.715c-5.75,14.613-5.359,31.532-1.376,46.722"
					/>
				<path id="XMLID_2028_" style="fill:#392A51;" d="M199.005,167.247c2.775,1.01,5.729,1.799,8.658,1.421
					c5.167-0.666,9.144-4.729,12.68-8.556c0.832-0.9,1.693-2.284,0.905-3.224c-0.739-0.881-2.171-0.409-3.133,0.22
					c-4.255,2.782-7.589,7.523-12.629,8.19c-3.628,0.48-7.121-1.342-10.328-3.107c-2.984-1.642-5.968-3.284-8.953-4.926
					c-0.599-0.329-0.23,2.682-0.07,3.008c0.471,0.956,2.139,1.643,2.974,2.17C192.208,164.402,195.564,165.994,199.005,167.247z"/>
				<path id="XMLID_2041_" style="fill:#392A51;" d="M212.308,158.189c0.729-1.429,2.238-2.244,3.534-3.189
					c1.461-1.065,2.831-2.431,4.61-2.751c2.79-0.501,5.506,2.089,5.731,4.915c0.225,2.826-1.563,5.532-3.94,7.077
					c-1.431,0.93-3.152,1.526-4.843,1.29C214.871,165.179,210.924,160.9,212.308,158.189z"/>
			</g>
		</g>
	</g>
</g>
<g id="DESIGNED_BY_FREEPIK">
	<g id="XMLID_5_">
		<g id="XMLID_319_">
			<g id="XMLID_338_">
				<path id="XMLID_346_" style="fill:#9EB7C7;" d="M260.104,465.465c-0.432,0.443-0.803,0.931-1.108,1.453l-0.465-0.241
					c-0.067-0.298-0.349-0.503-0.659-0.466c-0.331,0.039-0.568,0.339-0.529,0.67s0.339,0.568,0.67,0.529
					c0.065-0.008,0.127-0.026,0.184-0.052l0.451,0.234c-0.251,0.554-0.433,1.139-0.539,1.744l0.746,0.132
					c0.23-1.306,0.85-2.507,1.792-3.473L260.104,465.465z"/>
				<path id="XMLID_345_" style="fill:#9EB7C7;" d="M265.592,463.163c-0.171,0-0.341,0.006-0.51,0.017l-0.074-0.626
					c0.188-0.149,0.296-0.389,0.266-0.645c-0.046-0.393-0.402-0.674-0.795-0.628s-0.674,0.402-0.628,0.795
					c0.03,0.254,0.189,0.461,0.405,0.564l0.073,0.624c-0.714,0.116-1.403,0.332-2.06,0.646l0.327,0.684
					c0.934-0.447,1.942-0.673,2.995-0.673c0.496,0,0.993,0.053,1.475,0.158l0.161-0.741
					C266.693,463.222,266.142,463.163,265.592,463.163z"/>
				<path id="XMLID_344_" style="fill:#9EB7C7;" d="M272.194,465.711c0.331-0.04,0.566-0.341,0.525-0.672
					c-0.04-0.331-0.341-0.566-0.672-0.526c-0.309,0.038-0.535,0.304-0.53,0.609l-0.416,0.363c-0.418-0.43-0.89-0.813-1.408-1.139
					l-0.404,0.641c1.134,0.715,2.021,1.726,2.563,2.925l0.691-0.313c-0.251-0.554-0.568-1.072-0.942-1.545l0.402-0.351
					C272.065,465.716,272.129,465.719,272.194,465.711z"/>
				<path id="XMLID_343_" style="fill:#9EB7C7;" d="M265.044,473.372c-0.386,0.023-0.775,0.035-1.157,0.035
					c-0.88,0-1.733-0.061-2.478-0.179c-0.39-0.062-0.846-0.155-1.27-0.292c1.046,1.861,3.069,3.125,5.388,3.125
					c2.855,0,5.262-1.916,5.95-4.504c-0.682,0.449-1.505,0.825-2.459,1.123C267.839,473.047,266.464,473.286,265.044,473.372z"/>
				<path id="XMLID_339_" style="fill:#9EB7C7;" d="M265.592,464.68c-3.352,0-6.08,2.666-6.08,5.943
					c0,0.426,0.046,0.849,0.137,1.261c0.674,0.483,2.706,0.89,5.348,0.731c2.879-0.173,5.297-0.957,6.672-2.159
					c-0.005-0.195-0.021-0.39-0.045-0.582C271.244,466.913,268.65,464.68,265.592,464.68z M263.432,471.194
					c-1.02,0-1.85-0.83-1.85-1.85c0-1.02,0.83-1.85,1.85-1.85c1.02,0,1.85,0.83,1.85,1.85
					C265.282,470.365,264.452,471.194,263.432,471.194z M268.17,470.286c-0.75,0-1.36-0.61-1.36-1.36s0.61-1.361,1.36-1.361
					c0.75,0,1.361,0.61,1.361,1.361S268.92,470.286,268.17,470.286z"/>
			</g>
			<path id="XMLID_336_" style="fill:#9EB7C7;" d="M281.595,466.547c-0.295-0.116-0.806-0.309-1.382-0.237
				c-0.551,0.069-0.844,0.341-0.844,1.007v0.866h2.228v1.717h-2.228v5.455h-1.932v-5.455h-1.34v-1.717h1.34v-0.888
				c0-1.68,0.896-2.783,2.568-2.783c0.642,0,1.157,0.122,1.59,0.308L281.595,466.547z"/>
			<path id="XMLID_334_" style="fill:#9EB7C7;" d="M286.298,469.879c-0.177-0.03-0.358-0.046-0.526-0.046
				c-0.896,0-1.51,0.548-1.51,1.614v3.908h-1.932v-7.172h1.873v0.785c0.451-0.673,1.14-0.977,2.021-0.977
				c0.414,0,0.848,0.128,1.094,0.337L286.298,469.879z"/>
			<path id="XMLID_331_" style="fill:#9EB7C7;" d="M293.965,471.757c0,0.222-0.015,0.489-0.037,0.651h-5.085
				c0.207,1.036,0.933,1.488,1.843,1.488c0.622,0,1.295-0.252,1.813-0.688l1.132,1.243c-0.814,0.748-1.85,1.088-3.057,1.088
				c-2.198,0-3.723-1.495-3.723-3.753c0-2.258,1.48-3.797,3.627-3.797C292.544,467.99,293.958,469.522,293.965,471.757z
				 M288.851,471.091h3.175c-0.177-0.918-0.733-1.436-1.562-1.436C289.554,469.655,289.021,470.203,288.851,471.091z"/>
			<path id="XMLID_328_" style="fill:#9EB7C7;" d="M301.618,471.757c0,0.222-0.015,0.489-0.037,0.651h-5.085
				c0.207,1.036,0.932,1.488,1.843,1.488c0.622,0,1.295-0.252,1.813-0.688l1.132,1.243c-0.814,0.748-1.85,1.088-3.057,1.088
				c-2.198,0-3.723-1.495-3.723-3.753c0-2.258,1.48-3.797,3.627-3.797C300.197,467.99,301.611,469.522,301.618,471.757z
				 M296.504,471.091h3.175c-0.178-0.918-0.733-1.436-1.562-1.436C297.207,469.655,296.674,470.203,296.504,471.091z"/>
			<path id="XMLID_325_" style="fill:#9EB7C7;" d="M309.964,471.764c0,2.154-1.495,3.775-3.471,3.775
				c-0.962,0-1.643-0.378-2.109-0.933v3.708h-1.924v-10.133h1.887v0.792c0.466-0.585,1.155-0.984,2.139-0.984
				C308.469,467.99,309.964,469.61,309.964,471.764z M304.287,471.764c0,1.132,0.747,1.976,1.843,1.976
				c1.14,0,1.85-0.881,1.85-1.976c0-1.095-0.71-1.976-1.85-1.976C305.035,469.788,304.287,470.632,304.287,471.764z"/>
			<path id="XMLID_322_" style="fill:#9EB7C7;" d="M313.068,465.836c0,0.696-0.54,1.229-1.236,1.229
				c-0.696,0-1.229-0.533-1.229-1.229c0-0.696,0.533-1.243,1.229-1.243C312.527,464.592,313.068,465.14,313.068,465.836z
				 M312.809,475.354h-1.932v-7.172h1.932V475.354z"/>
			<path id="XMLID_320_" style="fill:#9EB7C7;" d="M316.032,470.736l2.702-2.554h2.368l-3.479,3.375l3.501,3.797h-2.376
				l-2.716-2.901v2.901H314.1v-10.658h1.932V470.736z"/>
		</g>
		<g id="XMLID_6_">
			<path id="XMLID_7_" style="fill:#9EB7C7;" d="M184.412,475.289v-1.055c-0.527,0.718-1.391,1.23-2.387,1.23
				c-1.846,0-3.149-1.406-3.149-3.706c0-2.256,1.289-3.721,3.149-3.721c0.952,0,1.816,0.469,2.387,1.245v-3.765h1.099v9.77H184.412z
				 M184.412,473.37v-3.208c-0.395-0.615-1.245-1.143-2.124-1.143c-1.421,0-2.27,1.172-2.27,2.739c0,1.567,0.85,2.724,2.27,2.724
				C183.168,474.483,184.017,473.986,184.412,473.37z"/>
			<path id="XMLID_9_" style="fill:#9EB7C7;" d="M186.932,471.744c0-2.051,1.465-3.706,3.486-3.706c2.139,0,3.398,1.67,3.398,3.794
				v0.279h-5.727c0.088,1.333,1.025,2.446,2.549,2.446c0.805,0,1.626-0.322,2.182-0.894l0.527,0.718
				c-0.703,0.703-1.655,1.084-2.812,1.084C188.44,475.465,186.932,473.956,186.932,471.744z M190.403,468.947
				c-1.509,0-2.256,1.274-2.314,2.358h4.643C192.718,470.25,192.015,468.947,190.403,468.947z"/>
			<path id="XMLID_12_" style="fill:#9EB7C7;" d="M194.607,474.351l0.571-0.791c0.469,0.542,1.362,1.011,2.329,1.011
				c1.084,0,1.67-0.513,1.67-1.216c0-1.714-4.38-0.659-4.38-3.281c0-1.098,0.952-2.036,2.636-2.036c1.201,0,2.051,0.454,2.622,1.026
				l-0.513,0.762c-0.424-0.513-1.201-0.894-2.109-0.894c-0.967,0-1.567,0.483-1.567,1.113c0,1.552,4.38,0.527,4.38,3.281
				c0,1.187-0.952,2.138-2.783,2.138C196.306,475.465,195.325,475.113,194.607,474.351z"/>
			<path id="XMLID_14_" style="fill:#9EB7C7;" d="M201.477,466.471c0-0.41,0.337-0.747,0.732-0.747c0.41,0,0.747,0.337,0.747,0.747
				c0,0.41-0.337,0.732-0.747,0.732C201.814,467.203,201.477,466.881,201.477,466.471z M201.667,475.289v-7.075h1.099v7.075H201.667
				z"/>
			<path id="XMLID_17_" style="fill:#9EB7C7;" d="M204.582,477.105l0.556-0.82c0.586,0.703,1.289,0.967,2.3,0.967
				c1.172,0,2.27-0.571,2.27-2.124v-1.011c-0.513,0.718-1.377,1.26-2.373,1.26c-1.845,0-3.149-1.377-3.149-3.662
				c0-2.27,1.289-3.677,3.149-3.677c0.952,0,1.802,0.469,2.373,1.245v-1.069h1.098v6.87c0,2.344-1.641,3.076-3.369,3.076
				C206.237,478.16,205.417,477.926,204.582,477.105z M209.709,473.253v-3.091c-0.381-0.615-1.23-1.143-2.109-1.143
				c-1.421,0-2.27,1.128-2.27,2.695c0,1.553,0.849,2.695,2.27,2.695C208.478,474.41,209.328,473.868,209.709,473.253z"/>
			<path id="XMLID_20_" style="fill:#9EB7C7;" d="M217.413,475.289v-4.629c0-1.245-0.63-1.641-1.582-1.641
				c-0.865,0-1.685,0.527-2.095,1.099v5.17h-1.099v-7.075h1.099v1.025c0.498-0.586,1.464-1.201,2.519-1.201
				c1.48,0,2.256,0.747,2.256,2.285v4.966H217.413z"/>
			<path id="XMLID_22_" style="fill:#9EB7C7;" d="M219.932,471.744c0-2.051,1.465-3.706,3.486-3.706c2.139,0,3.398,1.67,3.398,3.794
				v0.279h-5.727c0.088,1.333,1.025,2.446,2.549,2.446c0.806,0,1.626-0.322,2.183-0.894l0.527,0.718
				c-0.703,0.703-1.655,1.084-2.812,1.084C221.441,475.465,219.932,473.956,219.932,471.744z M223.404,468.947
				c-1.509,0-2.256,1.274-2.314,2.358h4.643C225.718,470.25,225.015,468.947,223.404,468.947z"/>
			<path id="XMLID_25_" style="fill:#9EB7C7;" d="M233.35,475.289v-1.055c-0.527,0.718-1.392,1.23-2.388,1.23
				c-1.846,0-3.149-1.406-3.149-3.706c0-2.256,1.289-3.721,3.149-3.721c0.952,0,1.817,0.469,2.388,1.245v-3.765h1.098v9.77H233.35z
				 M233.35,473.37v-3.208c-0.396-0.615-1.245-1.143-2.124-1.143c-1.421,0-2.27,1.172-2.27,2.739c0,1.567,0.849,2.724,2.27,2.724
				C232.105,474.483,232.954,473.986,233.35,473.37z"/>
			<path id="XMLID_28_" style="fill:#9EB7C7;" d="M239.692,475.289v-9.77h1.098v3.765c0.572-0.776,1.421-1.245,2.388-1.245
				c1.845,0,3.149,1.465,3.149,3.721c0,2.299-1.304,3.706-3.149,3.706c-0.996,0-1.86-0.513-2.388-1.23v1.055H239.692z
				 M242.9,474.483c1.436,0,2.285-1.157,2.285-2.724c0-1.568-0.85-2.739-2.285-2.739c-0.864,0-1.728,0.527-2.109,1.143v3.208
				C241.171,473.986,242.036,474.483,242.9,474.483z"/>
			<path id="XMLID_1938_" style="fill:#9EB7C7;" d="M247.528,477.061c0.161,0.073,0.425,0.117,0.601,0.117
				c0.483,0,0.805-0.161,1.055-0.747l0.469-1.069l-2.959-7.148h1.187l2.358,5.8l2.344-5.8h1.201l-3.545,8.51
				c-0.425,1.025-1.143,1.421-2.08,1.435c-0.234,0-0.601-0.044-0.805-0.103L247.528,477.061z"/>
		</g>
	</g>
</g>
</svg>
